<mxfile host="Electron" agent="Mozilla/5.0 (Windows NT 10.0; Win64; x64) AppleWebKit/537.36 (KHTML, like Gecko) draw.io/24.7.5 Chrome/126.0.6478.183 Electron/31.3.0 Safari/537.36" version="24.7.5">
  <diagram name="第 1 页" id="H0XPm4B7buejqU9kHXzx">
    <mxGraphModel dx="1164" dy="739" grid="1" gridSize="10" guides="1" tooltips="1" connect="1" arrows="1" fold="1" page="1" pageScale="1" pageWidth="827" pageHeight="1169" math="0" shadow="0">
      <root>
        <mxCell id="0" />
        <mxCell id="1" parent="0" />
        <mxCell id="xg3mFT2vUKm2c-lCaQlZ-2" value="AED数据库" style="shape=cylinder3;whiteSpace=wrap;html=1;boundedLbl=1;backgroundOutline=1;size=15;" vertex="1" parent="1">
          <mxGeometry x="549" y="570" width="90" height="110" as="geometry" />
        </mxCell>
        <mxCell id="xg3mFT2vUKm2c-lCaQlZ-16" style="edgeStyle=orthogonalEdgeStyle;rounded=0;orthogonalLoop=1;jettySize=auto;html=1;entryX=0.25;entryY=1;entryDx=0;entryDy=0;" edge="1" parent="1" source="xg3mFT2vUKm2c-lCaQlZ-4" target="xg3mFT2vUKm2c-lCaQlZ-5">
          <mxGeometry relative="1" as="geometry" />
        </mxCell>
        <mxCell id="xg3mFT2vUKm2c-lCaQlZ-4" value="用户数据库" style="shape=cylinder3;whiteSpace=wrap;html=1;boundedLbl=1;backgroundOutline=1;size=15;" vertex="1" parent="1">
          <mxGeometry x="199" y="570" width="90" height="110" as="geometry" />
        </mxCell>
        <mxCell id="xg3mFT2vUKm2c-lCaQlZ-18" style="edgeStyle=orthogonalEdgeStyle;rounded=0;orthogonalLoop=1;jettySize=auto;html=1;entryX=0.5;entryY=1;entryDx=0;entryDy=0;" edge="1" parent="1" source="xg3mFT2vUKm2c-lCaQlZ-5" target="xg3mFT2vUKm2c-lCaQlZ-17">
          <mxGeometry relative="1" as="geometry" />
        </mxCell>
        <mxCell id="xg3mFT2vUKm2c-lCaQlZ-5" value="springBoot服务器" style="rounded=1;whiteSpace=wrap;html=1;" vertex="1" parent="1">
          <mxGeometry x="353" y="510" width="120" height="60" as="geometry" />
        </mxCell>
        <mxCell id="xg3mFT2vUKm2c-lCaQlZ-6" value="后端" style="rounded=1;whiteSpace=wrap;html=1;" vertex="1" parent="1">
          <mxGeometry x="19" y="400" width="100" height="30" as="geometry" />
        </mxCell>
        <mxCell id="xg3mFT2vUKm2c-lCaQlZ-7" value="前端" style="rounded=1;whiteSpace=wrap;html=1;" vertex="1" parent="1">
          <mxGeometry x="20" y="280" width="100" height="30" as="geometry" />
        </mxCell>
        <mxCell id="xg3mFT2vUKm2c-lCaQlZ-9" value="地图界面" style="rounded=0;whiteSpace=wrap;html=1;" vertex="1" parent="1">
          <mxGeometry x="120" y="160" width="120" height="60" as="geometry" />
        </mxCell>
        <mxCell id="xg3mFT2vUKm2c-lCaQlZ-10" value="急救界面" style="rounded=0;whiteSpace=wrap;html=1;" vertex="1" parent="1">
          <mxGeometry x="280" y="160" width="120" height="60" as="geometry" />
        </mxCell>
        <mxCell id="xg3mFT2vUKm2c-lCaQlZ-11" value="AED使用指引界面" style="rounded=0;whiteSpace=wrap;html=1;" vertex="1" parent="1">
          <mxGeometry x="440" y="160" width="120" height="60" as="geometry" />
        </mxCell>
        <mxCell id="xg3mFT2vUKm2c-lCaQlZ-12" value="用户界面" style="rounded=0;whiteSpace=wrap;html=1;" vertex="1" parent="1">
          <mxGeometry x="600" y="160" width="120" height="60" as="geometry" />
        </mxCell>
        <mxCell id="xg3mFT2vUKm2c-lCaQlZ-15" style="edgeStyle=orthogonalEdgeStyle;rounded=0;orthogonalLoop=1;jettySize=auto;html=1;entryX=0.656;entryY=1.006;entryDx=0;entryDy=0;entryPerimeter=0;" edge="1" parent="1" source="xg3mFT2vUKm2c-lCaQlZ-2" target="xg3mFT2vUKm2c-lCaQlZ-5">
          <mxGeometry relative="1" as="geometry" />
        </mxCell>
        <mxCell id="xg3mFT2vUKm2c-lCaQlZ-17" value="数据库操作相关接口" style="rounded=1;whiteSpace=wrap;html=1;" vertex="1" parent="1">
          <mxGeometry x="353" y="420" width="120" height="60" as="geometry" />
        </mxCell>
        <mxCell id="xg3mFT2vUKm2c-lCaQlZ-22" value="" style="endArrow=classic;startArrow=classic;html=1;rounded=0;entryX=0.594;entryY=1.072;entryDx=0;entryDy=0;entryPerimeter=0;exitX=0.078;exitY=-0.017;exitDx=0;exitDy=0;exitPerimeter=0;" edge="1" parent="1" source="xg3mFT2vUKm2c-lCaQlZ-17" target="xg3mFT2vUKm2c-lCaQlZ-9">
          <mxGeometry width="50" height="50" relative="1" as="geometry">
            <mxPoint x="430" y="390" as="sourcePoint" />
            <mxPoint x="480" y="340" as="targetPoint" />
          </mxGeometry>
        </mxCell>
        <mxCell id="xg3mFT2vUKm2c-lCaQlZ-23" value="请求AED数据" style="edgeLabel;html=1;align=center;verticalAlign=middle;resizable=0;points=[];rotation=45;" vertex="1" connectable="0" parent="xg3mFT2vUKm2c-lCaQlZ-22">
          <mxGeometry x="0.0146" y="2" relative="1" as="geometry">
            <mxPoint x="6" y="-21" as="offset" />
          </mxGeometry>
        </mxCell>
        <mxCell id="xg3mFT2vUKm2c-lCaQlZ-26" value="返回AED数据" style="edgeLabel;html=1;align=center;verticalAlign=middle;resizable=0;points=[];rotation=45;" vertex="1" connectable="0" parent="xg3mFT2vUKm2c-lCaQlZ-22">
          <mxGeometry x="0.0146" y="2" relative="1" as="geometry">
            <mxPoint x="-14" y="-1" as="offset" />
          </mxGeometry>
        </mxCell>
        <mxCell id="xg3mFT2vUKm2c-lCaQlZ-27" value="" style="endArrow=none;dashed=1;html=1;rounded=0;" edge="1" parent="1">
          <mxGeometry width="50" height="50" relative="1" as="geometry">
            <mxPoint x="19" y="390" as="sourcePoint" />
            <mxPoint x="809" y="390" as="targetPoint" />
          </mxGeometry>
        </mxCell>
        <mxCell id="xg3mFT2vUKm2c-lCaQlZ-28" value="百度地图第三方API" style="rounded=1;whiteSpace=wrap;html=1;" vertex="1" parent="1">
          <mxGeometry x="354" y="20" width="120" height="60" as="geometry" />
        </mxCell>
        <mxCell id="xg3mFT2vUKm2c-lCaQlZ-29" value="" style="endArrow=classic;startArrow=classic;html=1;rounded=0;exitX=0.617;exitY=-0.039;exitDx=0;exitDy=0;exitPerimeter=0;entryX=0;entryY=1;entryDx=0;entryDy=0;" edge="1" parent="1" source="xg3mFT2vUKm2c-lCaQlZ-9" target="xg3mFT2vUKm2c-lCaQlZ-28">
          <mxGeometry width="50" height="50" relative="1" as="geometry">
            <mxPoint x="430" y="130" as="sourcePoint" />
            <mxPoint x="480" y="80" as="targetPoint" />
          </mxGeometry>
        </mxCell>
        <mxCell id="xg3mFT2vUKm2c-lCaQlZ-30" value="请求地图组件" style="text;html=1;align=center;verticalAlign=middle;resizable=0;points=[];autosize=1;strokeColor=none;fillColor=none;rotation=-25;" vertex="1" parent="1">
          <mxGeometry x="210" y="90" width="100" height="30" as="geometry" />
        </mxCell>
        <mxCell id="xg3mFT2vUKm2c-lCaQlZ-31" value="返回地图界面" style="text;html=1;align=center;verticalAlign=middle;resizable=0;points=[];autosize=1;strokeColor=none;fillColor=none;rotation=-25;" vertex="1" parent="1">
          <mxGeometry x="230" y="120" width="100" height="30" as="geometry" />
        </mxCell>
        <mxCell id="xg3mFT2vUKm2c-lCaQlZ-32" value="" style="endArrow=none;dashed=1;html=1;dashPattern=1 3;strokeWidth=2;rounded=0;entryX=0.65;entryY=1.039;entryDx=0;entryDy=0;entryPerimeter=0;exitX=0.5;exitY=0;exitDx=0;exitDy=0;" edge="1" parent="1" source="xg3mFT2vUKm2c-lCaQlZ-17" target="xg3mFT2vUKm2c-lCaQlZ-10">
          <mxGeometry width="50" height="50" relative="1" as="geometry">
            <mxPoint x="410" y="330" as="sourcePoint" />
            <mxPoint x="480" y="340" as="targetPoint" />
          </mxGeometry>
        </mxCell>
        <mxCell id="xg3mFT2vUKm2c-lCaQlZ-33" value="请求用户数据，发出求救信号" style="text;html=1;align=center;verticalAlign=middle;resizable=0;points=[];autosize=1;strokeColor=none;fillColor=none;rotation=75;" vertex="1" parent="1">
          <mxGeometry x="320" y="290" width="180" height="30" as="geometry" />
        </mxCell>
        <mxCell id="xg3mFT2vUKm2c-lCaQlZ-34" value="" style="endArrow=none;dashed=1;html=1;dashPattern=1 3;strokeWidth=2;rounded=0;exitX=0.832;exitY=0.023;exitDx=0;exitDy=0;exitPerimeter=0;" edge="1" parent="1" source="xg3mFT2vUKm2c-lCaQlZ-17">
          <mxGeometry width="50" height="50" relative="1" as="geometry">
            <mxPoint x="590" y="270" as="sourcePoint" />
            <mxPoint x="640" y="220" as="targetPoint" />
          </mxGeometry>
        </mxCell>
        <mxCell id="xg3mFT2vUKm2c-lCaQlZ-35" value="进行用户注册登录等操作" style="text;html=1;align=center;verticalAlign=middle;resizable=0;points=[];autosize=1;strokeColor=none;fillColor=none;rotation=-45;" vertex="1" parent="1">
          <mxGeometry x="450" y="290" width="160" height="30" as="geometry" />
        </mxCell>
      </root>
    </mxGraphModel>
  </diagram>
</mxfile>
